/* XPM */
static char * mjollnircoin32_xpm[] = {
"32 32 748 2",
"  	c None",
". 	c #D4DDD6",
"+ 	c #D2DBD6",
"@ 	c #C2CBC3",
"# 	c #F8FCF7",
"$ 	c #ECF4E9",
"% 	c #E6EEE3",
"& 	c #D5DFD4",
"* 	c #CBD4CC",
"= 	c #D1D9D3",
"- 	c #C9D2CC",
"; 	c #D2DCD4",
"> 	c #CCD4CA",
", 	c #ABB4A9",
"' 	c #919990",
") 	c #DADFDB",
"! 	c #F1F3F1",
"~ 	c #F3F6F3",
"{ 	c #E1E8E0",
"] 	c #D0D9CD",
"^ 	c #B7C1B7",
"/ 	c #A9B3A9",
"( 	c #9DA69F",
"_ 	c #ADB6AF",
": 	c #A6AFA8",
"< 	c #A9B2AB",
"[ 	c #B8C3BA",
"} 	c #ACB7AD",
"| 	c #AAB5AA",
"1 	c #BCC4BC",
"2 	c #AEB4AE",
"3 	c #B2B9B5",
"4 	c #E8EEE9",
"5 	c #DDE4DE",
"6 	c #C4CDC5",
"7 	c #AEB6AC",
"8 	c #9FA99F",
"9 	c #99A298",
"0 	c #9FA89F",
"a 	c #9AA39B",
"b 	c #B0BBB2",
"c 	c #C0CAC2",
"d 	c #BCC6BE",
"e 	c #A7B1AA",
"f 	c #ACB6AD",
"g 	c #B5BFB6",
"h 	c #C5CFC5",
"i 	c #B7BFB8",
"j 	c #B4BCB4",
"k 	c #959B97",
"l 	c #E2E8E4",
"m 	c #D0D8D1",
"n 	c #ABB5AD",
"o 	c #A5AEA6",
"p 	c #A2ACA2",
"q 	c #A8B1A6",
"r 	c #A4ADA2",
"s 	c #959D93",
"t 	c #ADB5AC",
"u 	c #CDD4CC",
"v 	c #D2D9D2",
"w 	c #C0C8C1",
"x 	c #BEC8BE",
"y 	c #C3CEC1",
"z 	c #C4CFC2",
"A 	c #BFC8BD",
"B 	c #BAC3B9",
"C 	c #ADB7AD",
"D 	c #B9C3B8",
"E 	c #D5DDD5",
"F 	c #8F9390",
"G 	c #E1E6E1",
"H 	c #CED5CF",
"I 	c #9AA49C",
"J 	c #9CA69E",
"K 	c #B4BEB6",
"L 	c #BEC9BF",
"M 	c #CFD8CE",
"N 	c #BEC7BC",
"O 	c #9EA49A",
"P 	c #D4D9D1",
"Q 	c #ECF0EB",
"R 	c #C7CEC5",
"S 	c #9BA298",
"T 	c #C2CBBD",
"U 	c #C8D1C2",
"V 	c #BAC4B6",
"W 	c #BEC8BA",
"X 	c #B7C0B2",
"Y 	c #B1BAAE",
"Z 	c #C8D3C6",
"` 	c #BBC5BA",
" .	c #99A197",
"..	c #777C77",
"+.	c #DADDDA",
"@.	c #D3DAD2",
"#.	c #9BA49B",
"$.	c #9DA89F",
"%.	c #BAC4BC",
"&.	c #B4BFB6",
"*.	c #C9D6CA",
"=.	c #C7D4CA",
"-.	c #B2BCB2",
";.	c #92978F",
">.	c #D9DDD7",
",.	c #E7EEE5",
"'.	c #ACB6A8",
").	c #99A194",
"!.	c #BBC4B5",
"~.	c #C4CCBD",
"{.	c #BCC4B5",
"].	c #B7C0B0",
"^.	c #B8C1B1",
"/.	c #B8C1B2",
"(.	c #C3CBBF",
"_.	c #A5AFA3",
":.	c #AEB9AB",
"<.	c #B3BAAF",
"[.	c #727872",
"}.	c #CED3CF",
"|.	c #D9E1DA",
"1.	c #A4B0A4",
"2.	c #9DAA9E",
"3.	c #C3CFC3",
"4.	c #C8D3C9",
"5.	c #BEC9BE",
"6.	c #CCD9CD",
"7.	c #B7C3B9",
"8.	c #B3BDB3",
"9.	c #828880",
"0.	c #CED4CB",
"a.	c #E3EBDF",
"b.	c #A0AA9B",
"c.	c #A0A99B",
"d.	c #BFC8B9",
"e.	c #C6CFC2",
"f.	c #BDC6B8",
"g.	c #AFB8A8",
"h.	c #B1BAA9",
"i.	c #AFB7A8",
"j.	c #ABB3A6",
"k.	c #A9B2A6",
"l.	c #BEC9BA",
"m.	c #B7C0B3",
"n.	c #B8BFB7",
"o.	c #4C524C",
"p.	c #989E99",
"q.	c #E1E7E3",
"r.	c #A0ABA2",
"s.	c #9CA99A",
"t.	c #B4C0B2",
"u.	c #BDC8BC",
"v.	c #BDC8BE",
"w.	c #C1CEC1",
"x.	c #BDCCBD",
"y.	c #ABB7AD",
"z.	c #A0AAA0",
"A.	c #767D75",
"B.	c #CDD5C9",
"C.	c #DDE4DA",
"D.	c #97A191",
"E.	c #9BA596",
"F.	c #BCC7B8",
"G.	c #BBC4B4",
"H.	c #B6BDB0",
"I.	c #B1B8AC",
"J.	c #B1B9AB",
"K.	c #B2BAAE",
"L.	c #C1CDBD",
"M.	c #A9B2A9",
"N.	c #747C75",
"O.	c #CDD4CE",
"P.	c #C2CBC4",
"Q.	c #848E84",
"R.	c #ACB8A8",
"S.	c #AFBBAC",
"T.	c #ABB3A7",
"U.	c #B2BBB1",
"V.	c #B6C2B6",
"W.	c #B3C2B3",
"X.	c #AAB6A9",
"Y.	c #97A297",
"Z.	c #7D847B",
"`.	c #C9D2C5",
" +	c #DAE0D7",
".+	c #969F91",
"++	c #99A495",
"@+	c #B9C5B5",
"#+	c #BAC7B7",
"$+	c #BFCAB9",
"%+	c #BDC6B5",
"&+	c #B4BCAE",
"*+	c #AFB7AA",
"=+	c #B2B9AA",
"-+	c #B3BBAE",
";+	c #A1AA9D",
">+	c #C0CDBD",
",+	c #B6C1B5",
"'+	c #ADB7AE",
")+	c #BAC7BC",
"!+	c #D3DFD6",
"~+	c #9AA59D",
"{+	c #858F85",
"]+	c #B3C0B1",
"^+	c #A9B5A6",
"/+	c #A6B0A5",
"(+	c #B1BCB1",
"_+	c #ACB8AC",
":+	c #AEBAAB",
"<+	c #A6B2A4",
"[+	c #9AA397",
"}+	c #7A8177",
"|+	c #BEC7BA",
"1+	c #CED4CA",
"2+	c #8F968B",
"3+	c #8F998D",
"4+	c #B2BFB1",
"5+	c #B6C3B5",
"6+	c #B5C1B2",
"7+	c #AFB9AA",
"8+	c #B1BCAD",
"9+	c #ABB5A7",
"0+	c #ACB4A5",
"a+	c #ACB4A6",
"b+	c #929D8F",
"c+	c #A3AFA2",
"d+	c #C0CFC1",
"e+	c #AEB9AE",
"f+	c #8C968B",
"g+	c #E2EDE3",
"h+	c #B7C4BA",
"i+	c #89928A",
"j+	c #99A59A",
"k+	c #BBC9BA",
"l+	c #A8B4A5",
"m+	c #A5AFA4",
"n+	c #B4C0B5",
"o+	c #A6B1A5",
"p+	c #A5B1A2",
"q+	c #A0AA9D",
"r+	c #676C64",
"s+	c #B4BFB2",
"t+	c #C1CBBF",
"u+	c #868E84",
"v+	c #8A948A",
"w+	c #B2C0B3",
"x+	c #AFBAAF",
"y+	c #AEB9AD",
"z+	c #A5B1A3",
"A+	c #A4AFA1",
"B+	c #A3AD9F",
"C+	c #ABB4A6",
"D+	c #A9B3A3",
"E+	c #97A393",
"F+	c #8F9B8E",
"G+	c #B6C4B7",
"H+	c #AEBAAC",
"I+	c #99A496",
"J+	c #B1BBB0",
"K+	c #E7EDE6",
"L+	c #959E93",
"M+	c #AEBBAD",
"N+	c #BBCAB8",
"O+	c #B1BDAE",
"P+	c #B4BFB1",
"Q+	c #B7C3B6",
"R+	c #A5B0A3",
"S+	c #A0AA9F",
"T+	c #929A90",
"U+	c #696F68",
"V+	c #C1CBC1",
"W+	c #C3CEC2",
"X+	c #929D91",
"Y+	c #8E998E",
"Z+	c #B3C0B3",
"`+	c #A7B2A6",
" @	c #B0BAAE",
".@	c #9FAA9C",
"+@	c #9BA698",
"@@	c #A0AB9D",
"#@	c #9BA79B",
"$@	c #7E8980",
"%@	c #A8B4A9",
"&@	c #BDC9BB",
"*@	c #96A194",
"=@	c #C0C9BF",
"-@	c #DDE2DB",
";@	c #A0A89B",
">@	c #9DA59A",
",@	c #BCC6B7",
"'@	c #BDCAB7",
")@	c #B7C3B2",
"!@	c #B7C1B2",
"~@	c #AEB8A9",
"{@	c #A8B1A5",
"]@	c #A7B1A7",
"^@	c #A6B0A7",
"/@	c #9BA499",
"(@	c #797E76",
"_@	c #D5DCD3",
":@	c #C6D1C6",
"<@	c #98A296",
"[@	c #99A296",
"}@	c #BBC6B8",
"|@	c #A9B3A7",
"1@	c #B3BDB1",
"2@	c #ADB9AB",
"3@	c #9DA89A",
"4@	c #9FA89B",
"5@	c #9CA69A",
"6@	c #9EA99F",
"7@	c #7E8880",
"8@	c #C8D2C7",
"9@	c #8C958B",
"0@	c #C5CDC4",
"a@	c #D7DED4",
"b@	c #A2AB9E",
"c@	c #A0A79C",
"d@	c #C1C8B9",
"e@	c #BFC8B7",
"f@	c #AFB9A9",
"g@	c #AAB4A3",
"h@	c #A6AFA0",
"i@	c #ADB5A9",
"j@	c #B0BAB0",
"k@	c #A4AFA5",
"l@	c #9BA397",
"m@	c #7F8479",
"n@	c #DBE2D6",
"o@	c #C8D1C6",
"p@	c #A0A79B",
"q@	c #A1A89C",
"r@	c #AEB5A8",
"s@	c #ABB5A9",
"t@	c #A8B4A6",
"u@	c #A1AC9F",
"v@	c #9DA79A",
"w@	c #A2AA9D",
"x@	c #A6B09F",
"y@	c #A1AC9C",
"z@	c #858F83",
"A@	c #CFD8CC",
"B@	c #929C91",
"C@	c #6B736A",
"D@	c #C9D1C7",
"E@	c #D2DACF",
"F@	c #9CA698",
"G@	c #A8B1A4",
"H@	c #C5CDBD",
"I@	c #BAC1B2",
"J@	c #B2BBAC",
"K@	c #AFB8A9",
"L@	c #A8B1A1",
"M@	c #B0B9AD",
"N@	c #9FA99E",
"O@	c #9CA499",
"P@	c #7F857C",
"Q@	c #D4DDD0",
"R@	c #C0C9BD",
"S@	c #9FA69A",
"T@	c #989E92",
"U@	c #A7AEA2",
"V@	c #AFBBAD",
"W@	c #A2AD9F",
"X@	c #A2AE9F",
"Y@	c #9FAA9B",
"Z@	c #A8B2A3",
"`@	c #A1AB9C",
" #	c #A9B2A0",
".#	c #A2AC9A",
"+#	c #868E81",
"@#	c #939C90",
"##	c #D7DFD4",
"$#	c #727A6F",
"%#	c #CBD3CA",
"&#	c #99A297",
"*#	c #B0BAAD",
"=#	c #BAC1B3",
"-#	c #BBC3B5",
";#	c #959C91",
">#	c #959F92",
",#	c #A4AEA1",
"'#	c #A2AC9F",
")#	c #9DA69B",
"!#	c #A1ACA0",
"~#	c #81887F",
"{#	c #C3CEC0",
"]#	c #B6C1B3",
"^#	c #959F93",
"/#	c #889085",
"(#	c #A1AA9E",
"_#	c #9BA699",
":#	c #939D90",
"<#	c #949E90",
"[#	c #98A192",
"}#	c #A8B3A2",
"|#	c #A8B2A2",
"1#	c #A4AE9E",
"2#	c #A5AE9E",
"3#	c #868D81",
"4#	c #939A8F",
"5#	c #D9DFD8",
"6#	c #70786D",
"7#	c #CAD0C8",
"8#	c #C6CEC5",
"9#	c #9CA59B",
"0#	c #AAB4A8",
"a#	c #C2CCBE",
"b#	c #B9C3B4",
"c#	c #99A094",
"d#	c #757B72",
"e#	c #A1AB9F",
"f#	c #A5B1A4",
"g#	c #98A497",
"h#	c #949E93",
"i#	c #7B847A",
"j#	c #BCC7BA",
"k#	c #C5D1C4",
"l#	c #808C80",
"m#	c #737C72",
"n#	c #8D968C",
"o#	c #879186",
"p#	c #8F988C",
"q#	c #939C8E",
"r#	c #ADB6A9",
"s#	c #ADB8A9",
"t#	c #B5C1B1",
"u#	c #A8B4A4",
"v#	c #AEB9A9",
"w#	c #80877B",
"x#	c #9FA49A",
"y#	c #D6DBD2",
"z#	c #BBC3B9",
"A#	c #C2CCBF",
"B#	c #9EA69B",
"C#	c #A6B0A3",
"D#	c #B9C4B7",
"E#	c #ACB7A9",
"F#	c #727970",
"G#	c #969D93",
"H#	c #CCD8CA",
"I#	c #B9C7B8",
"J#	c #A6B4A5",
"K#	c #A0ACA0",
"L#	c #A0ABA0",
"M#	c #929C92",
"N#	c #CAD5CA",
"O#	c #C9D5C9",
"P#	c #6E786E",
"Q#	c #8B9389",
"R#	c #ADB6AA",
"S#	c #BCC6B8",
"T#	c #BFCCBA",
"U#	c #ABB6A9",
"V#	c #B6C2B4",
"W#	c #ACBAAC",
"X#	c #ACB8AB",
"Y#	c #6E746B",
"Z#	c #AFB6AB",
"`#	c #CCD2C6",
" $	c #949D90",
".$	c #AFB9AD",
"+$	c #C1CEBD",
"@$	c #AAB4A6",
"#$	c #B3BEB2",
"$$	c #A3B0A5",
"%$	c #7C857C",
"&$	c #B5C0B5",
"*$	c #C8D4C8",
"=$	c #A8B3A7",
"-$	c #AEBAAF",
";$	c #A5B1A7",
">$	c #A8B3A9",
",$	c #CED9CF",
"'$	c #8B968A",
")$	c #BCC5B9",
"!$	c #C5CEC0",
"~$	c #C9D4C4",
"{$	c #C5D2C0",
"]$	c #BAC5B7",
"^$	c #939E91",
"/$	c #B2BEB1",
"($	c #ADBAAE",
"_$	c #94A096",
":$	c #626B62",
"<$	c #C1CCBF",
"[$	c #BBC5B7",
"}$	c #939B8E",
"|$	c #97A395",
"1$	c #C3CFBF",
"2$	c #A4AFA2",
"3$	c #ADB9AD",
"4$	c #A3B2A7",
"5$	c #8F9D93",
"6$	c #AEBCB2",
"7$	c #AFBAB1",
"8$	c #97A196",
"9$	c #98A196",
"0$	c #9CA69D",
"a$	c #717872",
"b$	c #99A39A",
"c$	c #C8D1C8",
"d$	c #BDC5BB",
"e$	c #A8B3A5",
"f$	c #9DA69A",
"g$	c #A3AB9D",
"h$	c #A1A99C",
"i$	c #A1AC9E",
"j$	c #A4B0A1",
"k$	c #9EA99A",
"l$	c #919A8E",
"m$	c #ABB6A8",
"n$	c #96A196",
"o$	c #7A837B",
"p$	c #7A847B",
"q$	c #CEDBCD",
"r$	c #A0AA9E",
"s$	c #899285",
"t$	c #879385",
"u$	c #BDC7BA",
"v$	c #9FAA9E",
"w$	c #A0AB9F",
"x$	c #A8B4A8",
"y$	c #9BA99E",
"z$	c #9EADA3",
"A$	c #A7B5AB",
"B$	c #A0ACA4",
"C$	c #A1ABA0",
"D$	c #A5AFA2",
"E$	c #A1AAA0",
"F$	c #767E77",
"G$	c #B3C0B5",
"H$	c #CAD5CB",
"I$	c #B7BFB5",
"J$	c #949E92",
"K$	c #A3AFA0",
"L$	c #A6B3A4",
"M$	c #A9B6A8",
"N$	c #959E91",
"O$	c #929C8D",
"P$	c #747A70",
"Q$	c #737A72",
"R$	c #AFB7AD",
"S$	c #CBD4C8",
"T$	c #7B8177",
"U$	c #777D71",
"V$	c #A1ADA0",
"W$	c #959F94",
"X$	c #9EA89E",
"Y$	c #9EAAA0",
"Z$	c #A9B6AB",
"`$	c #A6B3A9",
" %	c #A8B4AB",
".%	c #A8B3A8",
"+%	c #A2ADA0",
"@%	c #9EA59D",
"#%	c #899189",
"$%	c #B0BCB2",
"%%	c #BDCABF",
"&%	c #A7B5AA",
"*%	c #808A81",
"=%	c #99A69A",
"-%	c #AEBDAF",
";%	c #ADBBAC",
">%	c #ADBDAC",
",%	c #A7B5A7",
"'%	c #97A197",
")%	c #8D978D",
"!%	c #8A9588",
"~%	c #737B72",
"{%	c #99A299",
"]%	c #DAE1D7",
"^%	c #A7B0A2",
"/%	c #696F65",
"(%	c #79857A",
"_%	c #A1ACA1",
":%	c #A4AFA4",
"<%	c #9DA69D",
"[%	c #A1ACA3",
"}%	c #9DAA9F",
"|%	c #9DA99F",
"1%	c #99A49A",
"2%	c #99A499",
"3%	c #9AA39A",
"4%	c #979E96",
"5%	c #A7AFA7",
"6%	c #AEBBB0",
"7%	c #A4B2A7",
"8%	c #8E9A8F",
"9%	c #A8B7A9",
"0%	c #A2B0A2",
"a%	c #A9B7A7",
"b%	c #A1AEA0",
"c%	c #919E91",
"d%	c #828B82",
"e%	c #929A93",
"f%	c #838D84",
"g%	c #7E8A81",
"h%	c #C3D0C5",
"i%	c #CFD9CF",
"j%	c #767F75",
"k%	c #686F66",
"l%	c #8E988E",
"m%	c #989F97",
"n%	c #98A199",
"o%	c #A4AFA3",
"p%	c #9BA69C",
"q%	c #9AA69C",
"r%	c #9BA89D",
"s%	c #A1ABA1",
"t%	c #A3AAA2",
"u%	c #A4B0A5",
"v%	c #A7B4A7",
"w%	c #99A598",
"x%	c #9AA698",
"y%	c #A0AD9D",
"z%	c #8F9A8D",
"A%	c #808A80",
"B%	c #889088",
"C%	c #8E968F",
"D%	c #787F79",
"E%	c #ACBAAF",
"F%	c #D3DFD5",
"G%	c #88938B",
"H%	c #9CA89F",
"I%	c #9AA59C",
"J%	c #96A298",
"K%	c #A2AFA4",
"L%	c #919C90",
"M%	c #96A097",
"N%	c #96A199",
"O%	c #97A499",
"P%	c #99A599",
"Q%	c #9AA79B",
"R%	c #97A397",
"S%	c #929E91",
"T%	c #919F90",
"U%	c #8E9B8C",
"V%	c #7C877B",
"W%	c #838D83",
"X%	c #858E86",
"Y%	c #777F78",
"Z%	c #9CA79F",
"`%	c #D4E0D7",
" &	c #ACB5AD",
".&	c #6E756F",
"+&	c #585D56",
"@&	c #859189",
"#&	c #9FACA3",
"$&	c #99A59C",
"%&	c #869189",
"&&	c #959E94",
"*&	c #97A097",
"=&	c #9BA69E",
"-&	c #9DA99E",
";&	c #929E93",
">&	c #94A196",
",&	c #8F9C90",
"'&	c #818D80",
")&	c #838E80",
"!&	c #828B7F",
"~&	c #848D81",
"{&	c #828C83",
"]&	c #808982",
"^&	c #A5ACA7",
"/&	c #B0B8B1",
"(&	c #6C746E",
"_&	c #616863",
":&	c #A2AFA5",
"<&	c #8A948D",
"[&	c #95A199",
"}&	c #96A398",
"|&	c #909990",
"1&	c #939D94",
"2&	c #8D978F",
"3&	c #8F9A92",
"4&	c #909A93",
"5&	c #8D9890",
"6&	c #7D867E",
"7&	c #818C81",
"8&	c #7B857A",
"9&	c #848E81",
"0&	c #848A7E",
"a&	c #838B7F",
"b&	c #919C92",
"c&	c #BAC3BC",
"d&	c #C4CDC6",
"e&	c #9DA79F",
"f&	c #68726A",
"g&	c #4B524D",
"h&	c #919A93",
"i&	c #8F9A93",
"j&	c #95A098",
"k&	c #97A298",
"l&	c #95A197",
"m&	c #8F9B92",
"n&	c #8C968E",
"o&	c #88918A",
"p&	c #7F8781",
"q&	c #818A83",
"r&	c #859186",
"s&	c #808B80",
"t&	c #8D988D",
"u&	c #9BA599",
"v&	c #B9C5B6",
"w&	c #D0DFD2",
"x&	c #B0BBB3",
"y&	c #6E7770",
"z&	c #525A54",
"A&	c #79847F",
"B&	c #96A29B",
"C&	c #89948B",
"D&	c #919D92",
"E&	c #949E95",
"F&	c #A1ADA2",
"G&	c #AAB6AB",
"H&	c #9DA79E",
"I&	c #A4B0A6",
"J&	c #B8C7BB",
"K&	c #C0CEC3",
"L&	c #B9C6BB",
"M&	c #AAB9AA",
"N&	c #94A396",
"O&	c #6C766E",
"P&	c #6E7971",
"Q&	c #737F76",
"R&	c #98A498",
"S&	c #899389",
"T&	c #7D867D",
"U&	c #828D83",
"V&	c #7B867C",
"W&	c #97A498",
"X&	c #9AA398",
"Y&	c #868F85",
"Z&	c #919A90",
"`&	c #7E887E",
" *	c #768077",
".*	c #697268",
"+*	c #6F7B70",
"@*	c #5E675F",
"#*	c #94A194",
"$*	c #8D9B8F",
"%*	c #94A697",
"&*	c #6F796F",
"**	c #6D756C",
"=*	c #778177",
"-*	c #7F8A7F",
";*	c #798579",
"                              . + @                             ",
"                      # $ % & * = - ; > , '                     ",
"                ) ! ~ { ] ^ / ( _ : < [ } | 1 2                 ",
"              3 4 5 6 7 8 9 0 a b / c d e f g h i j             ",
"            k l m n o p q r s t u v w x y z A B C D E           ",
"          F G H I J K L M N O P Q R S T U V W X Y Z `  .        ",
"        ..+.@.#.$.%.&.*.=.-.;.>.,.'.).!.~.{.].^./.(._.:.<.      ",
"      [.}.|.1.2.3.4.5.6.7.8.9.0.a.b.c.d.e.f.g.h.i.j.k.l.m.n.    ",
"    o.p.q.r.s.t.u.v.w.x.y.z.A.B.C.D.E.F.z W G.H.I.J.K.'.L.M.    ",
"    N.O.P.Q.R.S.T.U.V.W.X.Y.Z.`. +.+++@+#+$+%+&+*+=+-+;+>+,+'+  ",
"    )+!+~+{+]+^+/+(+_+:+<+[+}+|+1+2+3+4+5+6+7+8+9+0+a+b+c+d+e+  ",
"  f+g+h+i+j+k+l+m+n+o+p+q+2+r+s+t+u+v+w+x+y+z+A+B+C+D+E+F+G+H+I+",
"  J+K+_.L+M+N+O+P+Q+R+q+S+T+U+V+W+X+Y+Z+`+ @H+.@+@B+@@#@$@%@&@*@",
"  =@-@;@>@,@'@)@!@~@{@]@^@/@(@_@:@<@[@}@|@1@2@3@+@4@5@6@7@^@8@9@",
"  0@a@b@c@d@e@f@g@h@i@j@k@l@m@n@o@p@q@r@s@t@u@v@;+w@x@y@z@S+A@B@",
"C@D@E@F@G@H@I@J@K@L@J.M@N@O@P@Q@R@S@T@U@V@W@X@Y@Z@`@ #.#+#@###c+",
"$#> %#&#*#U =#-#;#>#,#'#)#!#~#{#]#^#/#(#_#:#<#[#}#|#1#2#3#4#5#| ",
"6#7#8#9#0#a#b#c#d#e#f#g#h#*@i#j#k#l#m#n#o#p#q#r#s#t#u#v#w#x#y#(#",
"  z#A#B#C#D#E#F#G#H#I#J#K#L#M#N#O#P#Q#R#:.S#T#] U#V#W#X#Y#Z#`# $",
"  .$+$b.@$#$$$%$&$*$M+=$-$;$>$,$^ '$)$U !$~${$]$^$/$($_$:$<$[$}$",
"  |$1$v@2$3$4$5$6$7$8$9$0$a$b$c$d$e$f$g$h$i$j$k$l$m$n$o$p$q$r$s$",
"  t$u$v$w$x$y$z$A$B$C$D$E$F$G$H$I$J$o#K$3@L$M$'#N$O$P$Q$R$S$T$U$",
"    V$1.W$X$Y$Z$`$ %.%+%@%#%$%%%&%*%=%-%;%>%,%'%)%!%~%{%]%^%/%  ",
"    (%_%:%<%[%:%}%|%1%2%3%4%5%6%7%8%9%0%a%b%c%d%e%f%g%h%i%j%k%  ",
"      l%^@m%n%o%j+p%q%r%}%s%t%u%v%w%x%s.y%z%A%B%C%D%E%F%z.k%    ",
"      G%H%I%J%K%L%8$M%N%O%=%P%2.Q%R%S%T%U%V%W%X%Y%Z%`% &.&+&    ",
"        @&#&$&%&X+&&*&=&-&1%;&>&,&F+'&)&!&~&{&]&^&; /&(&_&      ",
"          :&<&[&}&|&1&2&3&4&5&<&6&7&8&9&0&a&b&c&d&e&f&g&        ",
"            h&i&j&k&l&m&n&o&o&p&q&r&s&t&u&v&w&x&%&y&z&          ",
"              A&B&C&D&E&F&_%G&H&} I&J&K&L&M&N&O&P&Q&            ",
"                  R&S&T&U&V&W&W%X&Y&Z&`& *.*+*@*                ",
"                      v+#*$*%*&*A%**i#=*-*;*                    "};
